<svg version="1.1" id="Слой_1" xmlns="http://www.w3.org/2000/svg" x="0" y="0" viewBox="0 0 200 50" xml:space="preserve">
  <style>
    .st3{opacity:.7;fill:#fff;enable-background:new}
  </style>
  <path d="M49.2 44.5v-4.6h3v.5h-2.4v4.1h-.6zm4.8 0v-4.6h1.7c.5 0 1 .1 1.3.4.3.2.5.6.5 1.1 0 .5-.2.9-.5 1.1-.3.2-.8.4-1.3.4h-1.1v1.6H54zm.5-2.1h1.2c.4 0 .7-.1.9-.3.2-.2.3-.5.3-.7 0-.3-.1-.6-.3-.7-.2-.2-.5-.2-.9-.2h-1.2v1.9zm5.5 2.2c-.3 0-.5-.1-.8-.2l.2-.4c.2.1.4.1.6.1.4 0 .7-.2.9-.7l-2-3.5h.6l1.7 3 1.5-3h.6l-1.8 3.6c-.4.7-.9 1.1-1.5 1.1zm6.6 0c-.7 0-1.4-.2-1.9-.7l.3-.4c.5.5 1 .7 1.6.7.3 0 .5-.1.7-.2.2-.2.3-.4.3-.7s-.1-.5-.3-.7c-.2-.1-.5-.2-.9-.2h-.5V42h.5c.3 0 .6-.1.8-.2.2-.2.3-.4.3-.6 0-.2-.1-.5-.3-.6-.2-.2-.5-.2-.7-.2-.5 0-1 .2-1.4.5l-.3-.4c.2-.2.5-.4.7-.5.2-.1.6-.2.9-.2.5 0 .8.1 1.1.3.3.2.5.5.5.9 0 .5-.3.9-.8 1.1.3.1.5.2.7.4.2.2.2.4.2.7 0 .4-.2.7-.5.9-.1.3-.5.5-1 .5zm7.4-.7c-.5.5-1 .7-1.7.7s-1.2-.2-1.7-.7c-.5-.5-.7-1-.7-1.7s.2-1.2.7-1.7c.5-.5 1-.7 1.7-.7s1.2.2 1.7.7c.5.5.7 1 .7 1.7 0 .6-.2 1.2-.7 1.7zm-3-.4c.3.4.8.5 1.3.5s1-.2 1.3-.5c.3-.4.5-.8.5-1.4s-.2-1-.5-1.4c-.3-.4-.8-.5-1.3-.5s-1 .2-1.3.5c-.3.4-.5.8-.5 1.4 0 .6.2 1.1.5 1.4zm5.7 1v-4.6h2c.5 0 1 .1 1.2.4.2.2.3.5.3.7 0 .5-.2.9-.7 1.1.7.2 1 .6 1 1.1 0 .4-.2.7-.5.9-.3.2-.7.3-1.2.3l-2.1.1zm.5-2.6h1.4c.3 0 .6-.1.8-.2.2-.2.3-.4.3-.6 0-.2-.1-.4-.2-.5-.2-.1-.4-.2-.7-.2h-1.4l-.2 1.5zm0 2.1h1.6c.4 0 .6-.1.8-.2.2-.2.3-.4.3-.6 0-.2-.1-.5-.3-.6-.2-.1-.5-.2-.9-.2h-1.4V44zm5.2.5v-4.6h.5v1.8h1.2c.5 0 1 .1 1.3.3.3.2.5.6.5 1s-.2.8-.5 1.1-.7.4-1.2.4h-1.8zm.5-.5h1.2c.4 0 .7-.1.9-.2.2-.2.3-.4.3-.7 0-.3-.1-.5-.3-.7-.2-.2-.5-.2-.9-.2H83l-.1 1.8zm3.6.5v-4.6h.5v4.6h-.5zm2.7 0v-4.6h3.3v.5h-2.8V42h2.5v.5h-2.5V44h2.9v.5h-3.4zm8.3 0v-4.6h3.6v4.6h-.5v-4.1H98v4.1h-.5zm5.8 0v-4.6h3.3v.5h-2.8V42h2.5v.5h-2.5V44h2.8v.5h-3.3zm5.4 0v-4.6h1.7c.5 0 1 .1 1.3.4.3.2.5.6.5 1.1 0 .5-.2.9-.5 1.1-.3.2-.8.4-1.3.4h-1.1v1.6h-.6zm.5-2.1h1.2c.4 0 .7-.1.9-.3.2-.2.3-.5.3-.7 0-.3-.1-.6-.3-.7-.2-.2-.5-.2-.9-.2h-1.2v1.9zm4.8 2.1v-4.6h3.3v.5h-2.8V42h2.5v.5h-2.5V44h2.8v.5H114zm5.4 0v-4.6h2c.5 0 1 .1 1.2.4.2.2.3.5.3.7 0 .5-.2.9-.7 1.1.7.2 1 .6 1 1.1 0 .4-.2.7-.5.9-.3.2-.7.3-1.2.3l-2.1.1zm.5-2.6h1.4c.3 0 .6-.1.8-.2.2-.2.3-.4.3-.6 0-.2-.1-.4-.2-.5s-.4-.2-.7-.2h-1.4l-.2 1.5zm0 2.1h1.6c.4 0 .6-.1.8-.2.2-.1.3-.4.3-.6 0-.2-.1-.5-.3-.6-.2-.1-.5-.2-.9-.2H120V44zm9-.1c-.5.5-1 .7-1.7.7s-1.2-.2-1.7-.7c-.5-.5-.7-1-.7-1.7s.2-1.2.7-1.7c.5-.5 1-.7 1.7-.7s1.2.2 1.7.7c.5.5.7 1 .7 1.7-.1.6-.3 1.2-.7 1.7zm-3-.4c.3.4.8.5 1.3.5s.9-.2 1.3-.5c.3-.4.5-.8.5-1.4s-.2-1-.5-1.4c-.4-.4-.8-.5-1.3-.5s-1 .2-1.3.5c-.3.4-.5.8-.5 1.4s.2 1.1.5 1.4zm7.2 1.1c-.7 0-1.4-.2-1.9-.7l.3-.4c.5.5 1 .7 1.6.7.3 0 .5-.1.7-.2.2-.2.3-.4.3-.7s-.1-.5-.3-.7c-.2-.1-.5-.2-.9-.2h-.5V42h.5c.3 0 .6-.1.8-.2.2-.2.3-.4.3-.6 0-.2-.1-.5-.3-.6-.2-.2-.5-.2-.7-.2-.5 0-1 .2-1.4.5l-.3-.4c.2-.2.5-.4.7-.5.2-.1.6-.2.9-.2.5 0 .8.1 1.1.3.3.2.5.5.5.9 0 .5-.3.9-.8 1.1.3.1.5.2.7.4.2.2.2.4.2.7 0 .4-.2.7-.5.9-.2.3-.5.5-1 .5zm3.6-.1v-4.6h.5v2.8l2.6-2.8h.7l-2 2 2.1 2.6h-.7l-1.8-2.2-1 1v1.2h-.4zm5.6 0v-4.6h.5v3.8l2.8-3.8h.5v4.6h-.5v-3.8l-2.8 3.8h-.5zm9 0v-4.6h3.6v4.6h-.5v-4.1h-2.6v4.1h-.5zm9.7-.6c-.5.5-1 .7-1.7.7s-1.2-.2-1.7-.7c-.5-.5-.7-1-.7-1.7s.2-1.2.7-1.7c.5-.5 1-.7 1.7-.7s1.2.2 1.7.7c.5.5.7 1 .7 1.7-.1.6-.3 1.2-.7 1.7zm-3.1-.4c.3.4.8.5 1.3.5s.9-.2 1.3-.5c.3-.4.5-.8.5-1.4s-.2-1-.5-1.4c-.3-.4-.8-.5-1.3-.5s-1 .2-1.3.5c-.3.4-.5.8-.5 1.4 0 .6.2 1.1.5 1.4zm8.6 1v-4.6h1.7c.5 0 .9.1 1.3.4.3.2.5.6.5 1.1 0 .5-.2.9-.5 1.1-.3.2-.8.4-1.3.4h-1.1v1.6h-.6zm.5-2.1h1.2c.4 0 .7-.1.9-.3.2-.2.3-.5.3-.7 0-.3-.1-.6-.3-.7-.2-.2-.5-.2-.9-.2H167v1.9zm8.7 1.5c-.5.5-1 .7-1.7.7s-1.2-.2-1.7-.7c-.5-.5-.7-1-.7-1.7s.2-1.2.7-1.7c.5-.5 1-.7 1.7-.7s1.2.2 1.7.7c.5.5.7 1 .7 1.7 0 .6-.2 1.2-.7 1.7zm-3-.4c.3.4.8.5 1.3.5s1-.2 1.3-.5c.3-.4.5-.8.5-1.4s-.2-1-.5-1.4c-.4-.4-.8-.5-1.3-.5s-.9.2-1.3.5c-.3.4-.5.8-.5 1.4s.2 1.1.5 1.4zm7.8 1.1c-.7 0-1.2-.2-1.7-.7-.5-.5-.7-1-.7-1.7s.2-1.2.7-1.7c.5-.5 1-.7 1.7-.7.4 0 .7.1 1 .2.3.1.5.3.8.6l-.3.4c-.5-.4-.9-.6-1.4-.6s-.9.2-1.3.5c-.3.4-.5.8-.5 1.4 0 .5.2 1 .5 1.4.3.4.8.5 1.3.5.3 0 .6 0 .8-.2.2-.1.5-.3.7-.5l.3.4c-.2.2-.5.5-.8.6-.4 0-.7.1-1.1.1zm5.8 0c-.7 0-1.2-.2-1.7-.7-.5-.5-.7-1-.7-1.7s.2-1.2.7-1.7c.5-.5 1-.7 1.7-.7.4 0 .7.1 1 .2.3.1.5.3.8.6l-.3.4c-.5-.4-.9-.6-1.4-.6s-.9.2-1.3.5c-.3.4-.5.8-.5 1.4 0 .5.2 1 .5 1.4.3.4.8.5 1.3.5.3 0 .6 0 .8-.2.2-.1.5-.3.7-.5l.3.4c-.2.2-.5.5-.8.6-.4 0-.7.1-1.1.1zm3.7-.1v-4.6h.5v3.8l2.8-3.8h.5v4.6h-.5v-3.8l-2.8 3.8h-.5zm6 0v-4.6h.5v3.8l2.8-3.8h.5v4.6h-.5v-3.8l-2.8 3.8h-.5z" fill="#494846"/>
  <path d="M49 30.9V16.5h5.9c1.7 0 3.1.5 4 1.4 1 .9 1.5 2.1 1.5 3.7s-.5 2.8-1.7 3.7c-1.1.9-2.5 1.3-4.2 1.3h-2.4v4.3H49zm3.2-7.2h2.5c.8 0 1.4-.2 1.9-.6.5-.4.7-.9.7-1.6 0-.7-.2-1.2-.7-1.6-.5-.4-1.1-.6-1.9-.6h-2.4l-.1 4.4zm20 5.7C71 30.5 69.6 31 67.9 31c-1.7 0-3.1-.5-4.3-1.6-1.1-1.1-1.6-2.4-1.6-4s.6-3 1.7-4.1c1.2-1.1 2.6-1.6 4.3-1.6 1.7 0 3.1.5 4.3 1.6 1.2 1.1 1.7 2.5 1.7 4.1s-.6 2.9-1.8 4zm-4.2-1c.9 0 1.6-.3 2.1-.9.5-.6.8-1.3.8-2.2 0-.8-.3-1.6-.8-2.1-.5-.6-1.2-.9-2.1-.9s-1.6.3-2.1.9c-.5.6-.8 1.3-.8 2.2 0 .8.3 1.6.8 2.1.5.6 1.2.9 2.1.9zm13.4 2.7c-1.7 0-3-.5-4.1-1.6-1.1-1.1-1.7-2.5-1.7-4.1 0-1.6.5-3 1.7-4.1 1.1-1.1 2.5-1.7 4.2-1.7 1.8 0 3.2.7 4.4 1.9L84 23.4c-.8-.7-1.6-1.1-2.6-1.1-.8 0-1.4.3-1.9.9-.5.6-.8 1.3-.8 2.2 0 .9.2 1.6.8 2.2.5.6 1.2.9 2 .9.9 0 1.7-.4 2.5-1.2l1.9 1.9c-.6.7-1.2 1.2-1.9 1.5-.7.3-1.5.4-2.6.4zm16.7-11.3v11H95v-8.4h-3.8v8.4H88v-11h10.1zm8 11.3c-1.7 0-3.1-.5-4.1-1.6-1.1-1.1-1.7-2.4-1.7-4.2 0-1.6.5-3 1.5-4.1 1-1.1 2.4-1.6 3.9-1.6 1.7 0 3.1.6 4 1.7.9 1.2 1.4 2.6 1.4 4.3v.8h-7.7c.2.7.5 1.2 1 1.6.5.4 1.1.5 1.8.5 1 0 1.9-.4 2.7-1.2l1.8 1.6c-1.2 1.5-2.7 2.2-4.6 2.2zm-2.7-6.6h4.7c-.1-.7-.3-1.3-.7-1.7-.4-.4-.9-.7-1.6-.7-.6 0-1.2.2-1.6.6-.4.5-.7 1.1-.8 1.8zm10.1 9.7V19.8h3.1v1.6c.9-1.2 2-1.8 3.4-1.8s2.6.5 3.6 1.6c1 1 1.5 2.4 1.5 4.2 0 1.8-.5 3.1-1.5 4.2-1 1-2.2 1.5-3.6 1.5s-2.5-.5-3.4-1.6v4.7h-3.1zm3.9-6.6c.5.6 1.2.9 1.9.9s1.4-.3 1.9-.9c.5-.6.8-1.3.8-2.2 0-.9-.2-1.6-.8-2.2-.5-.6-1.2-.9-1.9-.9s-1.4.3-1.9.9c-.5.6-.8 1.3-.8 2.2 0 .9.3 1.6.8 2.2zm15.3 3.5c-1.7 0-3.1-.5-4.1-1.6-1.1-1.1-1.7-2.4-1.7-4.2 0-1.6.5-3 1.6-4.1 1-1.1 2.4-1.6 3.9-1.6 1.7 0 3.1.6 4 1.7.9 1.2 1.4 2.6 1.4 4.3v.8h-7.7c.2.7.5 1.2.9 1.6.5.4 1.1.5 1.8.5 1 0 1.9-.4 2.7-1.2l1.8 1.6c-1.2 1.5-2.7 2.2-4.6 2.2zm-2.7-6.6h4.7c-.1-.7-.3-1.3-.7-1.7-.4-.4-1-.7-1.6-.7-.6 0-1.2.2-1.6.6-.4.5-.7 1.1-.8 1.8zm10.1-4.7h6.1c1.1 0 2 .2 2.7.7.7.5 1 1.2 1 2 0 1.2-.6 2-1.8 2.5 1.4.5 2.2 1.4 2.2 2.8 0 .9-.4 1.6-1.1 2.2-.7.5-1.7.8-3 .8h-6v-11zm3.1 4.5h2.2c.4 0 .7-.1 1-.3.2-.2.3-.5.3-.8 0-.3-.1-.5-.3-.7s-.5-.3-.9-.3h-2.2v2.1zm0 4.1h2.5c.9 0 1.4-.4 1.4-1.1 0-.7-.5-1.1-1.5-1.1h-2.4v2.2zm19.1 1c-1.2 1.1-2.6 1.6-4.3 1.6s-3.1-.5-4.3-1.6c-1.2-1.1-1.7-2.5-1.7-4.1s.6-3 1.7-4.1c1.2-1.1 2.6-1.6 4.3-1.6 1.7 0 3.1.5 4.3 1.6 1.2 1.1 1.7 2.5 1.7 4.1 0 1.7-.6 3-1.7 4.1zm-4.3-1c.9 0 1.6-.3 2.1-.9.5-.6.8-1.3.8-2.2 0-.8-.3-1.6-.8-2.1-.5-.6-1.2-.9-2.1-.9-.9 0-1.6.3-2.1.9-.5.6-.8 1.3-.8 2.2 0 .8.3 1.6.8 2.1s1.3.9 2.1.9zm8.9-5.1l-1.4-1.9c1.2-1.2 2.8-1.7 4.7-1.7 1.2 0 2.2.3 3 .9.8.6 1.2 1.3 1.2 2.1 0 1.2-.6 2-1.7 2.5 1.3.5 2 1.3 2 2.6 0 .9-.4 1.8-1.3 2.4-.8.7-1.9.9-3.2.9-2 0-3.7-.6-5-1.8l1.4-2c1 .8 2.1 1.2 3.3 1.2.5 0 .9-.1 1.2-.3.3-.2.5-.5.5-.8 0-.3-.2-.6-.5-.8-.3-.2-.8-.3-1.4-.3h-1.3v-2h1.3c.5 0 .9-.1 1.2-.3s.5-.5.5-.8c0-.3-.1-.5-.4-.7-.3-.2-.6-.3-1-.3-1.3 0-2.3.4-3.1 1.1zm10.2 7.6v-11h3.1v4.5l4-4.5h3.6l-4 4.5 4.5 6.5h-3.7l-2.9-4.2-1.4 1.6v2.6h-3.2zM200 19.8v11h-3v-6.4l-4.3 6.4h-2.9v-11h3v6.4l4.3-6.4h2.9z" fill="#6b380d"/>
  <linearGradient id="SVGID_1_" gradientUnits="userSpaceOnUse" x1="18.591" y1=".49" x2="18.591" y2="49.51" gradientTransform="matrix(1 0 0 -1 0 50)">
    <stop offset="0" stop-color="#c14c2d"/>
    <stop offset=".6" stop-color="#ff9c68"/>
    <stop offset=".683" stop-color="#ffa171"/>
    <stop offset=".82" stop-color="#feaf89"/>
    <stop offset=".991" stop-color="#fdc5b1"/>
    <stop offset="1" stop-color="#fdc6b3"/>
  </linearGradient>
  <path d="M37.2 20C37.2 9.3 28.9.5 18.6.5S0 9.2 0 20c0 7.8 9.8 21.1 15.2 27.9 1.8 2.2 5.1 2.2 6.9 0 5.3-6.8 15.1-20.2 15.1-27.9z" fill="url(#SVGID_1_)"/>
  <path class="st3" d="M18.6 14.9s-4 11.2-15 16C6.3 35.9 9.9 41 13 45c.6-.6 1.2-1.3 1.8-2.1 4.2-5.4 3.8-28 3.8-28z"/>
  <path class="st3" d="M18.6 14.9s-.4 22.6 3.8 28c.6.8 1.2 1.4 1.8 2.1 3-4 6.7-9.1 9.3-14.1-10.9-4.9-14.9-16-14.9-16z"/>
</svg>
